<svg xmlns:xlink="http://www.w3.org/1999/xlink" viewBox="0 0 32 32" xmlns="http://www.w3.org/2000/svg" aria-hidden="true" role="presentation" focusable="false" style="display: block; height: 24px; width: 24px; fill: currentcolor;" width="32"  height="32" ><path d="m16.8438 27.1562-.00005-3.39845-.2608465.0913211c-.9857292.3215073-2.0303948.5116467-3.1127817.5499306l-.4076218.0071983-.2927873-.0037049c-6.03236807-.1528291-10.89442655-5.0148222-11.04725775-11.0472069l-.00370495-.2927882.00370495-.2927873c.1528312-6.03236807 5.01488968-10.89442655 11.04725775-11.04725775l.2927873-.00370495.2927882.00370495c6.0323847.1528312 10.8943778 5.01488968 11.0472069 11.04725775l.0037049.2927873-.00663.3912275c-.0484899 1.4286741-.3615343 2.7917824-.8920452 4.0406989l-.1327748.2963236 7.90645 7.90705v5.5834h-5.5834l-4.12505-4.12545zm-6.5313-19.93745c1.708641 0 3.09375 1.38511367 3.09375 3.09375 0 1.7086436-1.3851064 3.09375-3.09375 3.09375-1.70863633 0-3.09375-1.385109-3.09375-3.09375 0-1.70863365 1.38511635-3.09375 3.09375-3.09375zm0 2.0625c-.56954635 0-1.03125.46170365-1.03125 1.03125 0 .5695521.46169942 1.03125 1.03125 1.03125.5695564 0 1.03125-.4616936 1.03125-1.03125 0-.56955058-.4616979-1.03125-1.03125-1.03125zm12.1147 15.81255 4.12455 4.12495h2.667v-2.667l-8.37295-8.37255.3697-.6775.1603998-.3074798c.56763-1.1397167.90791-2.4128858.9606815-3.761954l.0072187-.3697662-.0038197-.2688703c-.1397418-4.91222958-4.0963692-8.86881961-9.0086094-9.00856l-.2688709-.0038197-.2688703.0038197c-4.91222958.13974039-8.86881961 4.09633042-9.00856 9.00856l-.0038197.2688703.0038197.2688709c.14228112 5.0015536 4.24146819 9.0124291 9.2774303 9.0124291 1.4456308 0 2.8116781-.3298367 4.0293209-.9177001l.3012791-.1522999 1.5131-.7998-.00045 4.61975z" fill="#222222"></path></svg>