<svg xmlns="http://www.w3.org/2000/svg" viewBox="0 0 32 32" aria-hidden="true" role="presentation" focusable="false" style="display: block; height: 24px; width: 24px; fill: currentcolor;"><path d="M1.67 2.68A2 2 0 0 1 4.1.72l.14.04L16.01 4.3 27.78.91a2 2 0 0 1 2.53 1.63l.02.14v23.25a2 2 0 0 1-1.27 1.85l-.15.06-12.62 3.78a1 1 0 0 1-.46.03l-.12-.03L3.1 27.84a2 2 0 0 1-1.42-1.75v-.17zm2 0v23.24L16 29.62l12.33-3.7V2.82L16.28 6.3a1 1 0 0 1-.46.03l-.1-.03zm21.66 17.48v2.08L16 25.04v-2.08zm0-6v2.08L16 19.04v-2.08zm0-6v2.08L16 13.04v-2.08z"></path></svg>