<svg xmlns="http://www.w3.org/2000/svg" viewBox="0 0 32 32" aria-hidden="true" role="presentation" focusable="false" style="display: block; height: 24px; width: 24px; fill: currentcolor;"><path d="M24 1a5 5 0 0 1 5 4.78V26a5 5 0 0 1-4.78 5H8a5 5 0 0 1-5-4.78V6a5 5 0 0 1 4.78-5H8zm0 2H8a3 3 0 0 0-3 2.82V26a3 3 0 0 0 2.82 3H24a3 3 0 0 0 3-2.82V6a3 3 0 0 0-2.82-3zm-8 14a5 5 0 1 1 0 10 5 5 0 0 1 0-10zm0 2a3 3 0 1 0 0 6 3 3 0 0 0 0-6zm-2-6.54a1 1 0 1 1 0 2 1 1 0 0 1 0-2zm4 0a1 1 0 1 1 0 2 1 1 0 0 1 0-2zM16 9a1 1 0 1 1 0 2 1 1 0 0 1 0-2zm-4 0a1 1 0 1 1 0 2 1 1 0 0 1 0-2zm8 0a1 1 0 1 1 0 2 1 1 0 0 1 0-2zm-2-3.46a1 1 0 1 1 0 2 1 1 0 0 1 0-2zm-4 0a1 1 0 1 1 0 2 1 1 0 0 1 0-2z"></path></svg>