<svg width="17px" height="17px" viewBox="0 0 15 14" version="1.1" xmlns="http://www.w3.org/2000/svg" fill="#C0C9D1"><g id="uninversed" transform="translate(-209.000000, -68.000000)" fill-rule="nonzero"><path d="M220.171875,74.9759818 C220.171875,72.8759818 218.521875,71.2259818 216.421875,71.2259818 L216.421875,78.7259818 C218.521875,78.7259818 220.171875,77.0759818 220.171875,74.9759818 Z M221.671875,68.2259818 L211.171875,68.2259818 C210.346875,68.2259818 209.671875,68.9009818 209.671875,69.7259818 L209.671875,80.2259818 C209.671875,81.0509818 210.346875,81.7259818 211.171875,81.7259818 L221.671875,81.7259818 C222.496875,81.7259818 223.171875,81.0509818 223.171875,80.2259818 L223.171875,69.7259818 C223.171875,68.9009818 222.496875,68.2259818 221.671875,68.2259818 Z M221.671875,80.2259818 L216.421875,80.2259818 L216.421875,78.7259818 C214.321875,78.7259818 212.671875,77.0759818 212.671875,74.9759818 C212.671875,72.8759818 214.321875,71.2259818 216.421875,71.2259818 L216.421875,69.7259818 L221.671875,69.7259818 L221.671875,80.2259818 Z" id="Shape"/></g></svg>