<svg width="16px" height="15px" viewBox="0 0 12 14" version="1.1" xmlns="http://www.w3.org/2000/svg" fill="#C0C9D1"><g id="locked" transform="translate(-129.000000, -68.000000)" fill-rule="nonzero"><path d="M140.253918,74.6307915 C140.074892,74.4517989 139.857649,74.3623698 139.601854,74.3623698 L139.295216,74.3623698 L139.295216,72.5213661 C139.295216,71.3452541 138.873459,70.3354071 138.029675,69.4916571 C137.185959,68.6478735 136.176213,68.2259818 134.999933,68.2259818 C133.823687,68.2259818 132.813739,68.6478735 131.97009,69.4916235 C131.126306,70.3354071 130.704549,71.3452206 130.704549,72.5213661 L130.704549,74.3623698 L130.397776,74.3623698 C130.142183,74.3623698 129.924806,74.4517989 129.745813,74.6307915 C129.566821,74.8096497 129.477358,75.0270265 129.477358,75.2828549 L129.477358,80.8054967 C129.477358,81.06109 129.566854,81.278534 129.745813,81.4575601 C129.924806,81.6363847 130.142183,81.7259146 130.397776,81.7259146 L139.60209,81.7259146 C139.857884,81.7259146 140.075093,81.6364855 140.254153,81.4575601 C140.432978,81.278534 140.522608,81.06109 140.522608,80.8054967 L140.522608,75.2827541 C140.522743,75.0271273 140.432978,74.809784 140.253918,74.6307915 Z M137.454414,74.3623698 L132.545451,74.3623698 L132.545451,72.5213661 C132.545451,71.8438474 132.785194,71.2653288 133.264578,70.7860116 C133.74403,70.3066273 134.322448,70.0669855 135.000034,70.0669855 C135.677687,70.0669855 136.25597,70.3065937 136.735455,70.7860116 C137.214705,71.2652952 137.454414,71.8438474 137.454414,72.5213661 L137.454414,74.3623698 Z" id="Shape"/></g></svg>