<svg width="27px" height="15px" viewBox="0 0 24 13" version="1.1" xmlns="http://www.w3.org/2000/svg" fill="#C0C9D1"><g id="shown" fill-rule="nonzero"><path d="M11.872745,0.0321672355 C7.50102389,0.0321672355 3.53651877,2.29940273 0.611116529,5.98199659 C0.372403706,6.28370307 0.372403706,6.70520478 0.611116529,7.00691126 C3.53651877,10.693942 7.50102389,12.9611775 11.872745,12.9611775 C16.2444661,12.9611775 20.2089712,10.693942 23.1343735,7.01134812 C23.3730863,6.70964164 23.3730863,6.28813993 23.1343735,5.98643345 C20.2089712,2.29940273 16.2444661,0.0321672355 11.872745,0.0321672355 Z M12.1863481,11.0488908 C9.2843491,11.2219283 6.88785958,8.95469283 7.07040468,6.19940273 C7.22018528,3.92773038 9.16265236,2.08643345 11.5591419,1.94445392 C14.4611409,1.77141638 16.8576304,4.03865188 16.6750853,6.79394198 C16.5206241,9.06117747 14.578157,10.9024744 12.1863481,11.0488908 Z M12.0412482,8.94581911 C10.4779132,9.03899317 9.18605558,7.81885666 9.28902974,6.33694539 C9.36860068,5.11237201 10.4170648,4.12295222 11.7089225,4.04308874 C13.2722574,3.94991468 14.5641151,5.17005119 14.4611409,6.65196246 C14.3768893,7.8809727 13.3284252,8.87039249 12.0412482,8.94581911 Z" id="Shape"/></g></svg>