<svg xmlns="http://www.w3.org/2000/svg" viewBox="0 0 32 32" aria-hidden="true" role="presentation" focusable="false" style="display: block; height: 24px; width: 24px; fill: currentcolor;"><path d="M31 2v2h-2.34a3 3 0 0 0-1.98.74l-.14.14-.54.53V19a4.98 4.98 0 0 1-1.08 3.1A4 4 0 0 1 24 30a4 4 0 0 1-3.46-6h-9.07a4 4 0 1 1-5.3-1.56l.06-.07.06-.08L10.6 18h-1.6a3 3 0 0 0-1.97.74l-.14.14-3.83 3.83-1.41-1.42 3.82-3.83a5 5 0 0 1 3.28-1.45L9 16h3.58l4.2-4.19A4 4 0 0 1 18 4a4 4 0 0 1 3.81 2.78l3.31-3.32a5 5 0 0 1 3.27-1.45l.27-.01zm-7 22a2 2 0 1 0 0 4 2 2 0 0 0 0-4zM8 24a2 2 0 1 0 0 4 2 2 0 0 0 0-4zm16-5V7.41L9.41 22H21a3 3 0 0 0 2.98-2.65l.01-.17zM18 6a2 2 0 1 0 .15 0z"></path></svg>