<svg xmlns="http://www.w3.org/2000/svg" viewBox="0 0 32 32" aria-hidden="true" role="presentation" focusable="false" style="display: block; height: 24px; width: 24px; fill: currentcolor;"><path d="M10 5a2 2 0 0 1 2 1.85V15h8V7a2 2 0 0 1 1.85-2H24a2 2 0 0 1 2 1.85V9h2a2 2 0 0 1 2 1.85V15h2v2h-2v4a2 2 0 0 1-1.85 2H26v2a2 2 0 0 1-1.85 2H22a2 2 0 0 1-2-1.85V17h-8v8a2 2 0 0 1-1.85 2H8a2 2 0 0 1-2-1.85V23H4a2 2 0 0 1-2-1.85V17H0v-2h2v-4a2 2 0 0 1 1.85-2H6V7a2 2 0 0 1 1.85-2H8zm14 2h-2v18h2zM10 7H8v18h2zm18 4h-2v10h2zM6 11H4v10h2z"/></svg>