<svg xmlns="http://www.w3.org/2000/svg" viewBox="0 0 32 32" aria-hidden="true" role="presentation" focusable="false" style="display: block; height: 24px; width: 24px; fill: currentcolor;"><path d="M16 32a12 12 0 0 0 12-12c0-6.22-3.67-12.51-10.92-18.89L16 .18l-1.08.93C7.67 7.5 4 13.78 4 20c0 6.58 5.4 12 12 12zm0-2c-5.5 0-10-4.53-10-10 0-5.33 3.12-10.88 9.42-16.65l.41-.37.17-.15.58.52c6.04 5.53 9.15 10.85 9.4 15.98l.02.34V20a10 10 0 0 1-10 10zm-3.45-5.1a8.95 8.95 0 0 1 2.12-4.92l.24-.26.44-.47a6.97 6.97 0 0 0 1.83-4.41v-.72a6.03 6.03 0 0 0-2.02-.06 4.98 4.98 0 0 1-1.44 4 10.95 10.95 0 0 0-2.87 5.02 6.03 6.03 0 0 0 1.7 1.83zM16 26h.25l.25-.02v-.14c0-1.32.51-2.58 1.46-3.53a10.98 10.98 0 0 0 3.02-5.66 6.03 6.03 0 0 0-1.8-1.74 8.97 8.97 0 0 1-2.17 5.5l-.23.25-.45.46a6.96 6.96 0 0 0-1.82 4.42v.27c.47.12.97.19 1.49.19z"></path></svg>