<svg xmlns="http://www.w3.org/2000/svg" viewBox="0 0 32 32" aria-hidden="true" role="presentation" focusable="false" style="display: block; height: 24px; width: 24px; fill: currentcolor;"><path d="M26 28v2H6v-2h20zM16 1a8.64 8.64 0 0 1 7.83 5H28a1 1 0 0 1 1 1.08c-.3 3.87-1.58 6.45-3.9 7.56l.9 10.27a1 1 0 0 1-.88 1.08L25 26H7a1 1 0 0 1-1-.97v-.12L7.4 8.9c.02-.3.06-.6.12-.89H5a1 1 0 0 0-1 .88V19H2V9a3 3 0 0 1 2.82-3h3.35A8.64 8.64 0 0 1 16 1zm6.43 7H9.57a6.65 6.65 0 0 0-.14.7l-.04.36L8.1 24h15.82L22.6 9.06A6.67 6.67 0 0 0 22.43 8zm-5.45 3a9.82 9.82 0 0 1-2.7 5.78l-.23.24A6.96 6.96 0 0 0 12.07 21h-2.02a8.96 8.96 0 0 1 2.36-5.16l.23-.23A7.99 7.99 0 0 0 14.97 11h2.01zm4 0 .02.5a9.6 9.6 0 0 1-2.72 6.28l-.23.24A6.97 6.97 0 0 0 16.28 21h-2.06a8.96 8.96 0 0 1 2.19-4.16l.22-.23C18.09 15.16 19 13.2 19 11.5a4.94 4.94 0 0 0-.03-.5h2.01zm5.9-3h-2.4l.1.63.02.26.3 3.51c.99-.79 1.64-2.16 1.96-4.17l.03-.23zM16 3a6.63 6.63 0 0 0-5.55 3h11.1a6.63 6.63 0 0 0-5.04-2.98L16.23 3H16z"></path></svg>