<svg xmlns="http://www.w3.org/2000/svg" viewBox="0 0 32 32" aria-hidden="true" role="presentation" focusable="false" style="display: block; height: 24px; width: 24px; fill: currentcolor;"><path d="M21.54.8a13.67 13.67 0 0 1 9.74 16.43l-.08.3-.26.97-12.35-3.3-3.86 14.13h-2.07l4-14.66-12.12-3.24.26-.97A13.67 13.67 0 0 1 21.54.8zM5.67 21a4 4 0 1 1 0 8 4 4 0 0 1 0-8zm0 2a2 2 0 1 0 0 4 2 2 0 0 0 0-4zM25.33 4.92l.05.17c.74 2.34.77 5.38 0 8.5l-.1.33-.24.93 4.45 1.2.03-.2c.68-4.21-1-8.36-4.2-10.93zm-3.46-1.75-2.75 10.1 3.99 1.06.25-.93c1.23-4.6.44-8.83-1.5-10.23zm-1.95-.45c-2.28.38-4.9 3.46-6.14 7.79l-.08.3-.25.93 3.73 1zm-3.67-.26-.22.04a11.68 11.68 0 0 0-8.8 7.03l-.13.31-.07.19 4.48 1.2.25-.94c.9-3.33 2.55-6.12 4.5-7.83z"></path></svg>